<svg width="24" height="24" viewBox="0 0 24 24" fill="none" xmlns="http://www.w3.org/2000/svg">
<g id="Search line icon">
<path id="Vector" d="M2.1429 20.2374C2.1429 20.2374 3.15627 19.3038 4.17308 18.3728C5.01117 17.6051 5.54466 17.1166 5.90288 16.815C4.36082 15.0242 3.59077 12.7105 3.75722 10.3679C3.92366 8.02551 5.01328 5.83985 6.79355 4.27813C8.57382 2.71626 10.9035 1.90211 13.2848 2.0094C15.6663 2.11683 17.9106 3.13714 19.5386 4.85231C21.1667 6.56764 22.0493 8.842 21.9979 11.1895C21.9465 13.5372 20.9652 15.7719 19.2636 17.4164C17.562 19.061 15.2749 19.9851 12.8908 19.9911C10.5068 19.9972 8.21522 19.0848 6.50467 17.449C5.807 18.0751 4.00694 19.7265 2.7534 20.8808L2.7534 20.8807C2.66681 20.9608 2.5513 21.0036 2.43265 20.9998C2.31384 20.9959 2.20163 20.9458 2.12043 20.8602C2.03938 20.7747 1.99608 20.6609 2.00028 20.5441C2.00447 20.427 2.05556 20.3165 2.14245 20.2368L2.1429 20.2374ZM12.8399 19.1101C15.0157 19.1102 17.1025 18.2589 18.6408 16.7435C20.1793 15.228 21.0436 13.1728 21.0436 11.0297C21.0437 8.88654 20.1794 6.83106 18.641 5.31581C17.1025 3.80028 15.0158 2.94897 12.8401 2.94897C10.6643 2.94897 8.5775 3.80028 7.03916 5.31565C5.50056 6.83102 4.63627 8.88638 4.63627 11.0295C4.63867 13.1719 5.5037 15.2258 7.04173 16.7407C8.57961 18.2557 10.6649 19.1078 12.8399 19.1102L12.8399 19.1101Z" fill="#A5A5A5"/>
</g>
</svg>
