<svg width="26" height="20" viewBox="0 0 26 20" fill="none" xmlns="http://www.w3.org/2000/svg">
<path d="M18.2974 0.0175082C16.9483 -0.0933755 15.8521 0.322431 15.0089 1.26493L19.3093 9.0821L16.864 16.8161C17.9882 18.5348 19.506 19.5604 21.4172 19.8931C23.2723 20.2257 24.7338 19.7822 25.8019 18.5625C26.7575 12.6858 24.256 6.5041 18.2974 0.0175082ZM3.28848 0.0175082C1.93936 -0.0933755 0.843201 0.322431 1.90735e-06 1.26493L4.30032 9.0821L1.85504 16.8161C2.97931 18.5348 4.49706 19.5604 6.40831 19.8931C8.26335 20.2257 9.72489 19.7822 10.7929 18.5625C11.7486 12.6858 9.24708 6.5041 3.28848 0.0175082Z" fill="#303030"/>
</svg>
