<svg width="14" height="8" viewBox="0 0 14 8" fill="none" xmlns="http://www.w3.org/2000/svg">
<path d="M13.3482 7.52592C13.1609 7.71317 12.9069 7.81836 12.642 7.81836C12.3772 7.81836 12.1232 7.71317 11.9359 7.52592L6.9918 2.58184L2.04772 7.52592C1.85934 7.70786 1.60704 7.80854 1.34515 7.80626C1.08327 7.80399 0.832758 7.69894 0.647572 7.51376C0.462385 7.32857 0.357343 7.07806 0.355067 6.81617C0.352792 6.55429 0.453465 6.30199 0.635406 6.11361L6.28564 0.463373C6.47295 0.276126 6.72695 0.170936 6.9918 0.170936C7.25664 0.170936 7.51065 0.276126 7.69795 0.463373L13.3482 6.11361C13.5354 6.30092 13.6406 6.55492 13.6406 6.81977C13.6406 7.08462 13.5354 7.33862 13.3482 7.52592Z" fill="white"/>
</svg>
