<svg width="20" height="20" viewBox="0 0 20 20" fill="none" xmlns="http://www.w3.org/2000/svg">
<g id="Close icon">
<rect width="20" height="20" rx="4" transform="matrix(-1 -8.74228e-08 -8.74228e-08 1 20 0)" fill="#EDEDED"/>
<path id="Vector" fill-rule="evenodd" clip-rule="evenodd" d="M5.13329 5.77685C5.09103 5.73459 5.05751 5.68442 5.03464 5.62921C5.01177 5.574 5 5.51483 5 5.45507C5 5.39531 5.01177 5.33613 5.03464 5.28092C5.05751 5.22571 5.09103 5.17554 5.13329 5.13329C5.17554 5.09103 5.22571 5.05751 5.28092 5.03464C5.33613 5.01177 5.39531 5 5.45507 5C5.51483 5 5.574 5.01177 5.62921 5.03464C5.68443 5.05751 5.73459 5.09103 5.77685 5.13329L10 9.35735L14.2232 5.13329C14.2654 5.09103 14.3156 5.05751 14.3708 5.03464C14.426 5.01177 14.4852 5 14.5449 5C14.6047 5 14.6639 5.01177 14.7191 5.03464C14.7743 5.05751 14.8245 5.09103 14.8667 5.13329C14.909 5.17554 14.9425 5.22571 14.9654 5.28092C14.9882 5.33613 15 5.39531 15 5.45507C15 5.51483 14.9882 5.574 14.9654 5.62921C14.9425 5.68443 14.909 5.73459 14.8667 5.77685L10.6427 10L14.8667 14.2232C14.9521 14.3085 15 14.4242 15 14.5449C15 14.6656 14.9521 14.7814 14.8667 14.8667C14.7814 14.9521 14.6656 15 14.5449 15C14.4242 15 14.3085 14.9521 14.2232 14.8667L10 10.6427L5.77685 14.8667C5.69151 14.9521 5.57576 15 5.45507 15C5.33438 15 5.21863 14.9521 5.13329 14.8667C5.04794 14.7814 5 14.6656 5 14.5449C5 14.4242 5.04794 14.3085 5.13329 14.2232L9.35735 10L5.13329 5.77685Z" fill="#A5A5A5"/>
</g>
</svg>
