<svg width="24" height="24" viewBox="0 0 24 24" fill="none" xmlns="http://www.w3.org/2000/svg">
<path fill-rule="evenodd" clip-rule="evenodd" d="M19.7867 5.24296C19.8544 5.17535 19.908 5.09508 19.9446 5.00674C19.9812 4.9184 20 4.82372 20 4.72811C20 4.63249 19.9812 4.53781 19.9446 4.44947C19.908 4.36113 19.8544 4.28087 19.7867 4.21326C19.7191 4.14565 19.6389 4.09201 19.5505 4.05542C19.4622 4.01883 19.3675 4 19.2719 4C19.1763 4 19.0816 4.01883 18.9933 4.05542C18.9049 4.09201 18.8247 4.14565 18.757 4.21326L12 10.9718L5.24296 4.21326C5.17535 4.14565 5.09508 4.09201 5.00674 4.05542C4.9184 4.01883 4.82372 4 4.72811 4C4.63249 4 4.53781 4.01883 4.44947 4.05542C4.36113 4.09201 4.28087 4.14565 4.21326 4.21326C4.14565 4.28087 4.09201 4.36113 4.05542 4.44947C4.01883 4.53781 4 4.63249 4 4.72811C4 4.82372 4.01883 4.9184 4.05542 5.00674C4.09201 5.09508 4.14565 5.17535 4.21326 5.24296L10.9718 12L4.21326 18.757C4.07671 18.8936 4 19.0788 4 19.2719C4 19.465 4.07671 19.6502 4.21326 19.7867C4.3498 19.9233 4.535 20 4.72811 20C4.92121 20 5.10641 19.9233 5.24296 19.7867L12 13.0282L18.757 19.7867C18.8936 19.9233 19.0788 20 19.2719 20C19.465 20 19.6502 19.9233 19.7867 19.7867C19.9233 19.6502 20 19.465 20 19.2719C20 19.0788 19.9233 18.8936 19.7867 18.757L13.0282 12L19.7867 5.24296Z" fill="white"/>
</svg>
