<svg width="36" height="36" viewBox="0 0 36 36" fill="none" xmlns="http://www.w3.org/2000/svg">
<rect width="36" height="36" rx="18" fill="white"/>
<rect x="4" y="4" width="28" height="28" rx="14" fill="#EDEDED"/>
<path d="M24.067 12.3353C24.0453 12.3135 24.0195 12.2963 23.9911 12.2845C23.9626 12.2727 23.9322 12.2666 23.9015 12.2666C23.8707 12.2666 23.8403 12.2727 23.8118 12.2845C23.7834 12.2963 23.7576 12.3135 23.7359 12.3353L21.5985 14.4757L20.7632 13.6392C20.5526 13.4213 20.2133 13.7564 20.4321 13.9708L21.4324 14.9724C21.4541 14.9942 21.4799 15.0115 21.5083 15.0233C21.5367 15.0351 21.5671 15.0411 21.5979 15.0411C21.6286 15.0411 21.6591 15.0351 21.6875 15.0233C21.7159 15.0115 21.7417 14.9942 21.7634 14.9724L24.067 12.6657C24.1106 12.6218 24.135 12.5624 24.135 12.5005C24.135 12.4386 24.1106 12.3792 24.067 12.3353Z" fill="#A5A5A5"/>
<path d="M23.0966 20.6962C22.542 20.6951 22.0043 20.8873 21.5757 21.2398L21.2669 20.9305C21.7579 20.5216 22.3717 20.2894 23.01 20.271C23.1296 20.268 23.2434 20.2194 23.3283 20.1351L24.5789 18.8839C25.0469 18.4598 24.1109 17.0657 23.1083 16.5092C23.8117 15.9307 24.3866 15.2113 24.7962 14.3973C25.2058 13.5833 25.441 12.6925 25.4867 11.7821C25.578 10.9621 22.9375 10.4501 22.2519 10.504C21.5605 10.449 18.9236 10.9644 19.0136 11.7833C19.0965 13.3544 19.7391 14.8436 20.8247 15.9809C20.545 15.9809 20.1637 15.9551 20.0361 16.2749C19.6161 17.2309 19.5565 17.0692 20.1812 17.935C18.2579 17.0798 16.9464 17.9935 16.6106 18.236H14.5586L13.8146 17.491C13.7711 17.4475 13.7194 17.413 13.6626 17.3894C13.6058 17.3659 13.5449 17.3538 13.4835 17.3539H11.2057C11.0815 17.3539 10.9625 17.4033 10.8748 17.4911C10.787 17.579 10.7377 17.6982 10.7377 17.8225C10.7564 18.0884 10.6523 18.5664 10.9155 18.7445L12.709 20.1644C12.7889 20.2271 12.8871 20.262 12.9886 20.2639C13.6311 20.2792 14.2496 20.5116 14.7435 20.9235L14.4229 21.2445C12.9395 19.95 10.4581 21.1028 10.5025 23.0979C10.5035 23.7345 10.7564 24.3448 11.206 24.795C11.6556 25.2452 12.2651 25.4985 12.9009 25.4995C14.8897 25.5416 16.0421 23.0697 14.7563 21.5772L15.0827 21.2515C15.4732 21.6863 15.7186 22.2322 15.7847 22.8132C15.8139 23.1939 16.0362 23.3439 16.2526 23.3462C16.7206 23.3532 17.6905 23.3462 19.7846 23.3603C19.9031 23.3606 20.0172 23.3159 20.1041 23.2352C20.1909 23.1546 20.244 23.0439 20.2526 22.9256C20.2935 22.3082 20.5341 21.7209 20.9381 21.2527L21.2552 21.569C20.9002 21.997 20.7057 22.5357 20.7053 23.092C20.8036 26.2633 25.4037 26.2656 25.502 23.092C25.4995 22.4551 25.2449 21.8452 24.7939 21.3961C24.343 20.947 23.7326 20.6953 23.0966 20.6962ZM19.4804 11.7564C21.0434 10.7079 23.4581 10.702 25.0188 11.7564C24.9018 13.721 23.8781 15.5298 22.2508 16.5373C20.6176 15.5298 19.5962 13.7198 19.4804 11.7564ZM20.5099 18.6332L18.3784 19.8047L17.0634 18.4903C17.5161 18.1786 18.7563 17.5823 20.5099 18.6332ZM14.8324 23.0979C14.8324 25.6752 10.9717 25.6752 10.9717 23.0979C10.9705 21.5163 12.8868 20.5791 14.093 21.5796L12.7499 22.9221C12.7281 22.9442 12.7109 22.9704 12.6991 22.9991C12.6874 23.0279 12.6815 23.0587 12.6816 23.0897C12.6818 23.1208 12.6881 23.1515 12.7001 23.1801C12.7121 23.2088 12.7296 23.2347 12.7517 23.2566C12.7737 23.2784 12.7999 23.2957 12.8286 23.3075C12.8573 23.3192 12.888 23.3251 12.9191 23.325C12.9501 23.3248 12.9808 23.3185 13.0093 23.3065C13.0379 23.2945 13.0639 23.2769 13.0857 23.2548L14.4229 21.9111C14.6879 22.2498 14.8321 22.6676 14.8324 23.0979ZM19.7799 22.8917H16.2339C16.1799 22.064 15.8177 21.2867 15.2189 20.7136C14.6202 20.1405 13.8284 19.8132 13.0003 19.7965L11.2057 18.3743V17.8202H13.4835L14.2275 18.5652C14.2708 18.6092 14.3224 18.6441 14.3792 18.668C14.436 18.6919 14.497 18.7044 14.5586 18.7047H16.6106L18.0473 20.1421C18.1191 20.2139 18.2122 20.2603 18.3126 20.2745C18.4131 20.2886 18.5154 20.2697 18.6042 20.2206L20.8516 18.98C20.9091 18.9482 20.9592 18.9046 20.9988 18.8521C21.0384 18.7996 21.0665 18.7393 21.0813 18.6752C21.0961 18.6111 21.0972 18.5446 21.0847 18.4801C21.0721 18.4155 21.0461 18.3543 21.0083 18.3005L20.1789 17.1137L20.4632 16.4635C20.7583 16.4405 21.0548 16.4405 21.3499 16.4635C21.7419 16.7634 22.2133 17.2637 22.6872 16.815C23.0488 16.9852 23.373 17.2257 23.641 17.5225C23.9089 17.8194 24.1152 18.1667 24.2478 18.5442L22.996 19.7953C22.1709 19.8169 21.3837 20.1465 20.7887 20.7193C20.1937 21.2921 19.8339 22.0669 19.7799 22.8917ZM23.0966 25.0309C21.4506 25.0309 20.5801 23.1107 21.5816 21.9029L22.9317 23.2548C23.1434 23.4739 23.4803 23.1377 23.2627 22.9233L21.9138 21.5725C22.2514 21.3079 22.6679 21.1643 23.0966 21.1648C25.6494 21.2457 25.6505 25.0309 23.0966 25.0309Z" fill="#A5A5A5"/>
</svg>
