<svg width="19" height="17" viewBox="0 0 19 17" fill="none" xmlns="http://www.w3.org/2000/svg">
<g id="Group">
<path id="Vector" d="M11.3295 16.3276C10.4139 16.3276 9.55296 15.971 8.90548 15.3236L1.00408 7.42216C0.356573 6.77464 0 5.91379 0 4.99809C0 4.08249 0.356604 3.22151 1.00408 2.57403L2.02593 1.55218C2.22993 1.34818 2.50087 1.23823 2.78954 1.2423C3.07797 1.24649 3.34582 1.36433 3.54389 1.574L5.59362 3.7455C5.78369 3.94691 5.88624 4.21031 5.8823 4.48717C5.87835 4.76414 5.76828 5.02446 5.57242 5.22032L5.09256 5.70018C4.78662 6.00612 4.78662 6.50411 5.09256 6.81004L9.51753 11.235C9.66569 11.3833 9.8629 11.4649 10.0725 11.4649C10.282 11.4649 10.4792 11.3833 10.6274 11.235L11.1072 10.7552C11.3031 10.5593 11.5634 10.4492 11.8404 10.4453C12.117 10.4412 12.3807 10.5438 12.5821 10.734L14.7536 12.7837C14.9634 12.9818 15.0812 13.2496 15.0853 13.538C15.0895 13.8265 14.9794 14.0976 14.7754 14.3016L13.7535 15.3235C13.1062 15.9711 12.2453 16.3277 11.3296 16.3277L11.3295 16.3276ZM2.77401 1.77884C2.63472 1.77884 2.50419 1.83283 2.40545 1.93156L1.3836 2.95341C0.256228 4.08078 0.256228 5.91501 1.3836 7.04232L9.285 14.9437C9.83119 15.4899 10.5572 15.7905 11.3294 15.7905C12.1017 15.7905 12.8278 15.4898 13.3738 14.9437L14.3957 13.922C14.4963 13.8214 14.5505 13.6878 14.5484 13.5457C14.5464 13.4036 14.4884 13.2715 14.3848 13.1739L12.2134 11.1242C12.0068 10.9292 11.6875 10.9338 11.4866 11.1347L11.0067 11.6145C10.7571 11.8641 10.4252 12.0016 10.0722 12.0016C9.71917 12.0016 9.38721 11.8641 9.13761 11.6145L4.71295 7.18956C4.19759 6.6742 4.19759 5.83578 4.71295 5.32055L5.19281 4.84069C5.39373 4.63977 5.39841 4.32053 5.20329 4.11394L3.15344 1.94232C3.05594 1.83903 2.9238 1.78097 2.78169 1.77875H2.77404L2.77401 1.77884Z" fill="#303030"/>
<path id="Vector_2" d="M18.1729 6.39829H18.1723L9.75625 6.38239C9.68513 6.38227 9.61684 6.35392 9.56655 6.30338C9.51639 6.25297 9.48816 6.18456 9.48828 6.11343L9.49938 0.267849C9.49975 0.119812 9.6198 0 9.76784 0H9.76846L18.1845 0.0159009C18.3327 0.0161474 18.4527 0.136574 18.4524 0.284858L18.4413 6.13044C18.4412 6.20157 18.4128 6.26985 18.3623 6.32014C18.312 6.37031 18.2439 6.39829 18.1728 6.39829H18.1729ZM10.0257 5.84608L17.905 5.86099L17.9151 0.552476L10.0358 0.537561L10.0257 5.84608Z" fill="#EE2326"/>
<path id="Vector_3" d="M13.9907 4.15768C13.9286 4.15768 13.8662 4.13611 13.8161 4.09309L9.59369 0.472145C9.48115 0.37563 9.4682 0.206144 9.5646 0.0937357C9.66111 -0.0188025 9.8306 -0.0318694 9.943 0.0646457L13.9906 3.53539L18.0098 0.0807387C18.1222 -0.0158988 18.2917 -0.00320418 18.3882 0.109336C18.4848 0.221751 18.4721 0.391236 18.3596 0.487871L14.1656 4.09273C14.1155 4.13599 14.0532 4.15769 13.9908 4.15769L13.9907 4.15768Z" fill="#EE2326"/>
<path id="Vector_4" d="M18.1706 6.39845C18.106 6.39845 18.0415 6.37527 17.9901 6.32843L14.6932 3.32625C14.5836 3.22653 14.5756 3.05667 14.6754 2.94708C14.7753 2.8375 14.945 2.82949 15.0546 2.92933L18.3515 5.93152C18.4611 6.03124 18.4691 6.20109 18.3692 6.31068C18.3162 6.36899 18.2435 6.39844 18.1706 6.39844L18.1706 6.39845Z" fill="#EE2326"/>
<path id="Vector_5" d="M9.75677 6.38128C9.68379 6.38128 9.61119 6.3517 9.55819 6.29364C9.45847 6.18406 9.46636 6.01421 9.57594 5.91448L12.887 2.89999C12.9966 2.80027 13.1665 2.80815 13.2662 2.91774C13.3659 3.02732 13.358 3.19717 13.2484 3.2969L9.93735 6.31139C9.88608 6.35811 9.82136 6.38128 9.75677 6.38128H9.75677Z" fill="#EE2326"/>
<path id="Vector_6" d="M5.11599 5.56684C5.0445 5.56684 4.97325 5.53849 4.92037 5.48228L1.79162 2.15542C1.69005 2.04745 1.69535 1.87747 1.80321 1.77604C1.91118 1.67447 2.08104 1.67965 2.18259 1.78762L5.31135 5.11448C5.41291 5.22246 5.40761 5.39231 5.29976 5.49387C5.24799 5.54256 5.18192 5.56672 5.11598 5.56672L5.11599 5.56684Z" fill="#303030"/>
<path id="Vector_7" d="M14.3606 14.607C14.2946 14.607 14.2286 14.5829 14.1767 14.534L10.8501 11.4054C10.7421 11.3038 10.737 11.134 10.8385 11.0259C10.9401 10.9179 11.11 10.9128 11.2181 11.0143L14.5449 14.1431C14.6529 14.2446 14.6581 14.4145 14.5565 14.5226C14.5035 14.5788 14.4322 14.607 14.3608 14.607L14.3606 14.607Z" fill="#303030"/>
</g>
</svg>
