<svg width="20" height="20" viewBox="0 0 20 20" fill="none" xmlns="http://www.w3.org/2000/svg">
<g id="Copy icon">
<path id="Vector" d="M15.1506 4.83458C15.0137 3.06427 13.535 1.66602 11.7315 1.66602H5.09544C3.2041 1.66602 1.66406 3.20737 1.66406 5.10033V11.74C1.66406 13.5492 3.06929 15.0333 4.84625 15.1621C4.98106 16.9324 6.46186 18.3327 8.26333 18.3327H14.8994C16.7907 18.3327 18.3307 16.7913 18.3307 14.8984V12.6313C18.3307 12.292 18.057 12.018 17.718 12.018C17.3789 12.018 17.1052 12.292 17.1052 12.6313V14.8984C17.1052 16.1167 16.1167 17.1061 14.8994 17.1061H8.26333C7.04601 17.1061 6.05745 16.1167 6.05745 14.8984V8.25664C6.05745 7.03827 7.04601 6.04886 8.26333 6.04886H14.8994C16.1167 6.04886 17.1052 7.03827 17.1052 8.25664V9.7244C17.1052 10.0637 17.3789 10.3377 17.718 10.3377C18.057 10.3377 18.3307 10.0637 18.3307 9.7244V8.25664C18.3307 6.44749 16.9255 4.96337 15.1485 4.83458H15.1506ZM8.26537 4.82232C6.37403 4.82232 4.834 6.36367 4.834 8.25664V13.9314C3.74127 13.8006 2.8916 12.8664 2.8916 11.74V5.10033C2.8916 3.88197 3.88016 2.89256 5.09748 2.89256H11.7335C12.8569 2.89256 13.7842 3.73478 13.923 4.82232H8.26537Z" fill="#303030"/>
</g>
</svg>
