<svg width="36" height="36" viewBox="0 0 36 36" fill="none" xmlns="http://www.w3.org/2000/svg">
<rect width="36" height="36" rx="18" fill="white"/>
<rect x="3.5" y="3.5" width="29" height="29" rx="14.5" fill="white"/>
<path d="M19.6434 17.4445C20.7326 16.8197 21.4745 15.5956 21.4745 14.1904C21.4745 12.1554 19.9148 10.5 17.9976 10.5C16.0829 10.5 14.5249 12.1554 14.5249 14.1904C14.5249 15.5946 15.2651 16.8183 16.3519 17.4433C13.0215 18.2414 10.5145 21.403 10.5 25.1776C10.4996 25.2629 10.5313 25.3449 10.5882 25.4055C10.6448 25.4661 10.7219 25.5 10.8022 25.5H25.1978C25.2781 25.5 25.3552 25.4661 25.4118 25.4055C25.4687 25.3449 25.5003 25.2629 25.5 25.1776C25.4853 21.4043 22.9767 18.2437 19.6435 17.4441L19.6434 17.4445ZM17.9998 20.7919L18.6165 22.9056L17.9998 23.8748L17.383 22.9056L17.9998 20.7919ZM17.9998 19.1239L17.2588 17.9301C17.5008 17.9026 17.7458 17.8858 17.9946 17.8858C18.2466 17.8858 18.4945 17.903 18.7397 17.9314L17.9998 19.1239ZM15.1293 14.1903C15.1293 12.5094 16.416 11.142 17.9977 11.142C19.5816 11.142 20.8702 12.5093 20.8702 14.1903C20.8702 15.8737 19.5816 17.2434 17.9977 17.2434C16.416 17.2434 15.1293 15.8737 15.1293 14.1903ZM11.1121 24.8575C11.2641 21.4861 13.5775 18.7033 16.6026 18.0387L17.669 19.7572L16.7631 22.8627C16.736 22.9555 16.75 23.0568 16.8016 23.1374L17.7497 24.6275C17.8057 24.7157 17.8995 24.7689 17.9999 24.7689C18.1003 24.7689 18.1941 24.7158 18.2501 24.6275L19.1982 23.1374C19.2498 23.0566 19.2638 22.9555 19.2367 22.8627L18.3308 19.7572L19.3959 18.0406C22.422 18.708 24.7357 21.4886 24.8879 24.8574L11.1121 24.8575Z" fill="#303030"/>
<rect x="3.5" y="3.5" width="29" height="29" rx="14.5" stroke="#EE2326"/>
</svg>
