<svg width="24" height="24" viewBox="0 0 24 24" fill="none" xmlns="http://www.w3.org/2000/svg">
<g id="Hero Store icon">
<g id="Group">
<path id="Vector" d="M21.6667 9H21.3333V3.33333C21.3333 3.14925 21.1841 3 21 3H3C2.81592 3 2.66667 3.14925 2.66667 3.33333V9H2.33333C2.14925 9 2 9.14925 2 9.33333V20.6667C2 20.8509 2.14925 21 2.33333 21H4H7.33333H21.6667C21.8507 21 22 20.8509 22 20.6667V9.33333C22 9.14925 21.8507 9 21.6667 9ZM3.33333 3.66667H20.6667V9H3.33333V3.66667ZM2.66667 9.66667H3H8.33333V20.3333H7.66667V15.3333C7.66667 15.1491 7.51742 15 7.33333 15H4C3.81592 15 3.66667 15.1491 3.66667 15.3333V20.3333H2.66667V9.66667ZM4.33333 20.3333V15.6667H7V20.3333H4.33333ZM21.3333 20.3333H9V9.66667H21H21.3333V20.3333Z" fill="#303030"/>
<path id="Vector_2" d="M6.09668 17.7644C6.03662 17.8276 6 17.9145 6 18.0011C6 18.0444 6.00993 18.0876 6.02653 18.1277C6.04329 18.1677 6.06657 18.2042 6.09668 18.2377C6.12988 18.2677 6.16667 18.2911 6.20654 18.3077C6.24658 18.3243 6.28988 18.3344 6.33333 18.3344C6.42334 18.3344 6.50667 18.3009 6.56999 18.2377C6.59993 18.2042 6.62321 18.1677 6.63997 18.1277C6.65658 18.0876 6.66667 18.0444 6.66667 18.0011C6.66667 17.9145 6.62988 17.8276 6.56999 17.7644C6.44661 17.641 6.21989 17.641 6.09668 17.7644Z" fill="#303030"/>
<path id="Vector_3" d="M17.8346 7.33333V5.33333C17.8346 5.14925 17.6854 5 17.5013 5H6.5013C6.31722 5 6.16797 5.14925 6.16797 5.33333V7.33333C6.16797 7.51742 6.31722 7.66667 6.5013 7.66667H17.5013C17.6854 7.66667 17.8346 7.51742 17.8346 7.33333ZM17.168 7H6.83464V5.66667H17.168V7Z" fill="#303030"/>
<path id="Vector_4" d="M11.3307 16.3359C10.4118 16.3359 9.66406 17.0837 9.66406 18.0026C9.66406 18.9215 10.4118 19.6693 11.3307 19.6693C12.2497 19.6693 12.9974 18.9215 12.9974 18.0026C12.9974 17.0837 12.2497 16.3359 11.3307 16.3359ZM11.3307 19.0026C10.7793 19.0026 10.3307 18.554 10.3307 18.0026C10.3307 17.4512 10.7793 17.0026 11.3307 17.0026C11.8822 17.0026 12.3307 17.4512 12.3307 18.0026C12.3307 18.554 11.8822 19.0026 11.3307 19.0026Z" fill="#EE2326"/>
<path id="Vector_5" d="M19.3334 16.3359C19.309 16.3359 19.2863 16.3421 19.2621 16.3431L19.0849 15.6342C19.1648 15.6549 19.2471 15.6693 19.3334 15.6693H20.0001C20.1841 15.6693 20.3334 15.5202 20.3334 15.3359V14.0026C20.3334 13.8184 20.1841 13.6693 20.0001 13.6693H19.3334C19.0732 13.6693 18.8381 13.7715 18.6601 13.9349L18.3235 12.5885C18.2864 12.4401 18.1531 12.3359 18.0001 12.3359H16.6667C16.4826 12.3359 16.3334 12.485 16.3334 12.6693C16.3334 12.8535 16.4826 13.0026 16.6667 13.0026H17.7398L17.8272 13.3522C17.7746 13.3436 17.7217 13.3359 17.6667 13.3359H15.6667C15.2665 13.3359 14.9229 13.5738 14.7633 13.9142L10.7647 12.6839C10.6775 12.6572 10.5827 12.6676 10.503 12.7122C10.4232 12.7572 10.3655 12.833 10.3433 12.9219L10.01 14.2552C9.97402 14.3988 10.0373 14.5492 10.1654 14.624L12.6836 16.0929C12.6861 16.1019 12.6846 16.1109 12.6879 16.1198L13.6879 18.7865C13.7367 18.9163 13.8611 19.0026 14.0001 19.0026H16.6667C16.7984 19.0026 16.9179 18.9251 16.9713 18.8047L18.2166 16.0026H18.3334C18.3869 16.0026 18.4356 15.9872 18.4804 15.9648L18.6154 16.5051C18.0565 16.7745 17.6667 17.3418 17.6667 18.0026C17.6667 18.9215 18.4144 19.6693 19.3334 19.6693C20.2523 19.6693 21.0001 18.9215 21.0001 18.0026C21.0001 17.0837 20.2523 16.3359 19.3334 16.3359ZM19.3334 14.3359H19.6667V15.0026H19.3334C19.1496 15.0026 19.0001 14.8532 19.0001 14.6693C19.0001 14.4854 19.1496 14.3359 19.3334 14.3359ZM15.3334 14.3359C15.3334 14.152 15.483 14.0026 15.6667 14.0026H17.6667C17.8505 14.0026 18.0001 14.152 18.0001 14.3359V15.3359H15.3334V14.3359ZM10.9048 13.4245L14.6667 14.5822V15.5684L14.2302 16.2233L10.7175 14.1742L10.9048 13.4245ZM16.4501 18.3359H14.231L13.5878 16.6204L14.1654 16.9574C14.2182 16.988 14.2759 17.0026 14.3331 17.0026C14.4411 17.0026 14.5468 16.9502 14.6107 16.8542L15.1784 16.0026H17.4872L16.4501 18.3359ZM19.3334 19.0026C18.782 19.0026 18.3334 18.554 18.3334 18.0026C18.3334 17.6551 18.5119 17.3491 18.7816 17.1698L19.01 18.0833C19.0479 18.235 19.1838 18.3359 19.3331 18.3359C19.3599 18.3359 19.3871 18.3327 19.4143 18.3258C19.5928 18.2812 19.7014 18.1003 19.6568 17.9219L19.4294 17.0123C19.9353 17.0615 20.3334 17.484 20.3334 18.0026C20.3334 18.554 19.8848 19.0026 19.3334 19.0026Z" fill="#EE2326"/>
<path id="Vector_6" d="M9.90495 11.9023L11.2383 10.569C11.3685 10.4388 11.3685 10.2279 11.2383 10.0977C11.1081 9.96745 10.8971 9.96745 10.7669 10.0977L9.43359 11.431C9.30339 11.5612 9.30339 11.7721 9.43359 11.9023C9.4987 11.9674 9.58398 12 9.66927 12C9.75456 12 9.83984 11.9674 9.90495 11.9023Z" fill="#EE2326"/>
<path id="Vector_7" d="M10.7656 11.9023C10.8307 11.9674 10.916 12 11.0013 12C11.0866 12 11.1719 11.9674 11.237 11.9023L12.5703 10.569C12.7005 10.4388 12.7005 10.2279 12.5703 10.0977C12.4401 9.96745 12.2292 9.96745 12.099 10.0977L10.7656 11.431C10.6354 11.5612 10.6354 11.7721 10.7656 11.9023Z" fill="#EE2326"/>
</g>
</g>
</svg>
