<svg width="24" height="24" viewBox="0 0 24 24" fill="none" xmlns="http://www.w3.org/2000/svg">
<g filter="url(#filter0_b_26099_101341)">
<rect width="24" height="24" rx="12" fill="#303030" fill-opacity="0.8"/>
<path fill-rule="evenodd" clip-rule="evenodd" d="M6.15231 17.847C6.05819 17.7528 6 17.623 6 17.4798V14.3463C6 14.059 6.23158 13.8261 6.52174 13.8261C6.80989 13.8261 7.04348 14.0594 7.04348 14.3463V16.9565H9.65372C9.94102 16.9565 10.1739 17.1881 10.1739 17.4783C10.1739 17.7664 9.94056 18 9.65372 18H6.52019C6.3768 18 6.24696 17.9423 6.15286 17.8484L6.15231 17.847ZM6.15231 6.15304C6.05819 6.24719 6 6.37703 6 6.52019V9.65372C6 9.94102 6.23158 10.1739 6.52174 10.1739C6.80989 10.1739 7.04348 9.94056 7.04348 9.65372V7.04348H9.65372C9.94102 7.04348 10.1739 6.8119 10.1739 6.52174C10.1739 6.23359 9.94056 6 9.65372 6H6.52019C6.3768 6 6.24696 6.05769 6.15286 6.15156L6.15231 6.15304ZM17.8477 17.847C17.9418 17.7528 18 17.623 18 17.4798V14.3463C18 14.059 17.7684 13.8261 17.4783 13.8261C17.1901 13.8261 16.9565 14.0594 16.9565 14.3463V16.9565H14.3463C14.059 16.9565 13.8261 17.1881 13.8261 17.4783C13.8261 17.7664 14.0594 18 14.3463 18H17.4798C17.6232 18 17.753 17.9423 17.8471 17.8484L17.8477 17.847ZM17.8477 6.15304C17.9418 6.24719 18 6.37703 18 6.52019V9.65372C18 9.94102 17.7684 10.1739 17.4783 10.1739C17.1901 10.1739 16.9565 9.94056 16.9565 9.65372V7.04348H14.3463C14.059 7.04348 13.8261 6.8119 13.8261 6.52174C13.8261 6.23359 14.0594 6 14.3463 6H17.4798C17.6232 6 17.753 6.05769 17.8471 6.15156L17.8477 6.15304Z" fill="white"/>
</g>
<defs>
<filter id="filter0_b_26099_101341" x="-4" y="-4" width="32" height="32" filterUnits="userSpaceOnUse" color-interpolation-filters="sRGB">
<feFlood flood-opacity="0" result="BackgroundImageFix"/>
<feGaussianBlur in="BackgroundImageFix" stdDeviation="2"/>
<feComposite in2="SourceAlpha" operator="in" result="effect1_backgroundBlur_26099_101341"/>
<feBlend mode="normal" in="SourceGraphic" in2="effect1_backgroundBlur_26099_101341" result="shape"/>
</filter>
</defs>
</svg>
