<svg width="24" height="24" viewBox="0 0 24 24" fill="none" xmlns="http://www.w3.org/2000/svg">
<g id="Open icon">
<path id="Vector" fill-rule="evenodd" clip-rule="evenodd" d="M13.0418 1.71599C13.0418 1.62038 13.023 1.5257 12.9864 1.43736C12.9498 1.34902 12.8962 1.26875 12.8286 1.20114C12.7609 1.13353 12.6807 1.0799 12.5923 1.04331C12.504 1.00672 12.4093 0.987884 12.3137 0.987884C12.2181 0.987883 12.1234 1.00672 12.0351 1.04331C11.9467 1.0799 11.8665 1.13353 11.7989 1.20114C11.7312 1.26875 11.6776 1.34902 11.641 1.43736C11.6044 1.5257 11.5856 1.62038 11.5856 1.71599L11.5866 11.2729L2.0297 11.2719C1.93408 11.2719 1.8394 11.2907 1.75107 11.3273C1.66273 11.3639 1.58246 11.4175 1.51485 11.4852C1.44724 11.5528 1.39361 11.633 1.35702 11.7214C1.32043 11.8097 1.30159 11.9044 1.30159 12C1.30159 12.0956 1.32043 12.1903 1.35702 12.2786C1.39361 12.367 1.44724 12.4472 1.51485 12.5148C1.58246 12.5825 1.66273 12.6361 1.75107 12.6727C1.8394 12.7093 1.93408 12.7281 2.0297 12.7281L11.5866 12.7271L11.5856 22.284C11.5856 22.4771 11.6623 22.6623 11.7989 22.7989C11.9354 22.9354 12.1206 23.0121 12.3137 23.0121C12.5068 23.0121 12.692 22.9354 12.8286 22.7989C12.9651 22.6623 13.0418 22.4771 13.0418 22.284L13.0408 12.7271L22.5977 12.7281C22.7908 12.7281 22.976 12.6514 23.1126 12.5148C23.2491 12.3783 23.3258 12.1931 23.3258 12C23.3258 11.8069 23.2491 11.6217 23.1126 11.4852C22.976 11.3486 22.7908 11.2719 22.5977 11.2719L13.0408 11.2729L13.0418 1.71599Z" fill="#303030"/>
</g>
</svg>
