<svg width="24" height="24" viewBox="0 0 24 24" fill="none" xmlns="http://www.w3.org/2000/svg">
<g id="Order Detail">
<path id="Vector" d="M16.0212 2.69756C15.5692 2.2494 14.9538 1.99809 14.3125 2.00001H6.41593C5.77542 2.00065 5.16129 2.25176 4.70831 2.69805C4.25529 3.14449 4.00066 3.74971 4 4.38089V19.6191C4.00065 20.2503 4.2553 20.8556 4.70831 21.302C5.16133 21.7482 5.77546 21.9993 6.41593 22H18.0126C18.6532 21.9994 19.2673 21.7482 19.7203 21.302C20.1733 20.8555 20.4279 20.2503 20.4286 19.6191V8.02698C20.4302 7.39527 20.1754 6.78911 19.7208 6.34365L16.0212 2.69756ZM14.63 2.98948C14.8981 3.04768 15.1437 3.18001 15.3379 3.37086L19.0374 7.01671C19.2301 7.20883 19.3637 7.45054 19.4232 7.71425H16.0796C15.6954 7.71377 15.3269 7.56326 15.0552 7.2954C14.7834 7.02754 14.6306 6.66451 14.6301 6.28569L14.63 2.98948ZM19.4621 19.6191C19.4617 19.9978 19.3089 20.361 19.0371 20.6287C18.7653 20.8965 18.3969 21.0472 18.0126 21.0477H6.41584C6.03145 21.0472 5.66305 20.8965 5.39127 20.6287C5.11948 20.361 4.96675 19.9978 4.96625 19.6191V4.3809C4.96674 4.00224 5.11946 3.63903 5.39127 3.37136C5.66307 3.1035 6.03145 2.95283 6.41584 2.95234H13.6638V6.2857C13.6644 6.91692 13.9192 7.52214 14.3721 7.96854C14.8251 8.41499 15.4392 8.66592 16.0797 8.66658H19.4621V19.6191Z" fill="#303030"/>
<g id="Vector_2">
<path d="M16.5646 11.9997C16.5646 11.7368 16.3482 11.5234 16.0813 11.5234H8.35044C8.0835 11.5234 7.86719 11.7368 7.86719 11.9997C7.86719 12.2626 8.0835 12.4759 8.35044 12.4759H16.0813C16.3482 12.4759 16.5646 12.2626 16.5646 11.9997Z" fill="#EE2326"/>
<path d="M16.4232 15.1935C16.5138 15.1042 16.5646 14.9831 16.5646 14.8568C16.5646 14.7305 16.514 14.6094 16.4234 14.5201C16.3328 14.4306 16.21 14.3806 16.0817 14.3806H8.35044C8.0835 14.3806 7.86719 14.5939 7.86719 14.8568C7.86719 15.1197 8.0835 15.333 8.35044 15.333H16.0813C16.2096 15.333 16.3326 15.283 16.4232 15.1935Z" fill="#EE2326"/>
<path d="M16.4232 18.0506C16.5138 17.9614 16.5646 17.8402 16.5646 17.7139C16.5646 17.5876 16.514 17.4665 16.4234 17.3772C16.3328 17.2877 16.21 17.2377 16.0817 17.2377H8.35044C8.0835 17.2377 7.86719 17.451 7.86719 17.7139C7.86719 17.9768 8.0835 18.1902 8.35044 18.1902H16.0813C16.2096 18.1902 16.3326 18.1401 16.4232 18.0506Z" fill="#EE2326"/>
</g>
</g>
</svg>
