<svg width="14" height="14" viewBox="0 0 14 14" fill="none" xmlns="http://www.w3.org/2000/svg">
<g id="Component 169" clip-path="url(#clip0_28909_3002)">
<path id="Vector" d="M7 2C6.0111 2 5.0444 2.29324 4.22215 2.84265C3.39991 3.39206 2.75904 4.17295 2.3806 5.08658C2.00217 6.00021 1.90315 7.00555 2.09608 7.97545C2.289 8.94536 2.76521 9.83627 3.46447 10.5355C4.16373 11.2348 5.05465 11.711 6.02455 11.9039C6.99446 12.0969 7.99979 11.9978 8.91342 11.6194C9.82705 11.241 10.6079 10.6001 11.1573 9.77785C11.7068 8.9556 12 7.98891 12 7C12 5.67392 11.4732 4.40215 10.5355 3.46447C9.59785 2.52678 8.32608 2 7 2ZM6.37917 4.5C6.37917 4.33424 6.44502 4.17527 6.56223 4.05806C6.67944 3.94085 6.83841 3.875 7.00417 3.875C7.16993 3.875 7.3289 3.94085 7.44611 4.05806C7.56332 4.17527 7.62917 4.33424 7.62917 4.5V7.37083C7.62917 7.45291 7.613 7.53418 7.58159 7.61001C7.55018 7.68584 7.50415 7.75474 7.44611 7.81277C7.38807 7.87081 7.31917 7.91685 7.24334 7.94826C7.16752 7.97967 7.08624 7.99583 7.00417 7.99583C6.92209 7.99583 6.84082 7.97967 6.76499 7.94826C6.68916 7.91685 6.62026 7.87081 6.56223 7.81277C6.50419 7.75474 6.45815 7.68584 6.42674 7.61001C6.39533 7.53418 6.37917 7.45291 6.37917 7.37083V4.5ZM7 10.125C6.85826 10.125 6.7197 10.083 6.60184 10.0042C6.48399 9.92547 6.39213 9.81354 6.33789 9.68259C6.28365 9.55163 6.26945 9.40754 6.29711 9.26852C6.32476 9.1295 6.39301 9.0018 6.49324 8.90157C6.59347 8.80134 6.72117 8.73309 6.86019 8.70544C6.99921 8.67778 7.1433 8.69198 7.27426 8.74622C7.40521 8.80046 7.51714 8.89232 7.59589 9.01017C7.67464 9.12803 7.71667 9.26659 7.71667 9.40833C7.71667 9.5984 7.64116 9.78069 7.50676 9.91509C7.37236 10.0495 7.19007 10.125 7 10.125Z" fill="#038252"/>
</g>
<defs>
<clipPath id="clip0_28909_3002">
<rect width="14" height="14" fill="white"/>
</clipPath>
</defs>
</svg>
