<svg width="26" height="20" viewBox="0 0 26 20" fill="none" xmlns="http://www.w3.org/2000/svg">
<path d="M7.70258 0.0175082C9.0517 -0.0933755 10.1479 0.322431 10.9911 1.26493L6.69075 9.0821L9.13602 16.8161C8.01176 18.5348 6.494 19.5604 4.58275 19.8931C2.72771 20.2257 1.26617 19.7822 0.198118 18.5625C-0.757508 12.6858 1.74398 6.5041 7.70258 0.0175082ZM22.7115 0.0175082C24.0606 -0.0933755 25.1568 0.322431 26 1.26493L21.6997 9.0821L24.145 16.8161C23.0207 18.5348 21.5029 19.5604 19.5917 19.8931C17.7367 20.2257 16.2751 19.7822 15.2071 18.5625C14.2514 12.6858 16.7529 6.5041 22.7115 0.0175082Z" fill="#303030"/>
</svg>
