<svg width="24" height="24" viewBox="0 0 24 24" fill="none" xmlns="http://www.w3.org/2000/svg">
<path d="M4.36265 14.1562C4.75978 14.1562 5.08177 14.4782 5.08177 14.8756L5.08177 18.472C5.08177 18.6627 5.15764 18.8458 5.2925 18.9806C5.42737 19.1155 5.6104 19.1914 5.80115 19.1914L18.7484 19.1914C19.1455 19.1914 19.4678 18.8691 19.4678 18.472L19.4678 14.8756C19.4678 14.4782 19.7897 14.1562 20.1869 14.1562C20.5843 14.1562 20.9062 14.4782 20.9062 14.8756L20.9062 18.472C20.9062 19.0442 20.6789 19.5931 20.2743 19.9979C19.8695 20.4025 19.3206 20.6299 18.7484 20.6299L5.80114 20.6299C5.22893 20.6299 4.68004 20.4025 4.27522 19.9979C3.87062 19.5931 3.64327 19.0442 3.64327 18.472L3.64327 14.8756C3.64327 14.6849 3.71914 14.5018 3.85401 14.367C3.98887 14.2321 4.1719 14.1562 4.36265 14.1562Z" fill="#A5A5A5"/>
<path d="M14.0217 4.99369L12.6694 3.55519C12.5577 3.43549 12.4014 3.36734 12.2378 3.36734C12.0741 3.36734 11.9178 3.43549 11.8063 3.55519L10.454 4.99369L9.60523 5.89993L9.60499 5.90017C9.4458 6.07453 9.40413 6.32645 9.49902 6.54272C9.59391 6.75923 9.80753 6.89915 10.0438 6.89988L11.5543 6.89988L11.5543 14.8119C11.5543 15.0026 11.6302 15.1857 11.765 15.3205C11.8999 15.4554 12.0829 15.5312 12.2737 15.5312C12.6708 15.5312 12.993 15.2093 12.993 14.8119L12.993 6.89988L14.4315 6.89988C14.6666 6.89627 14.8776 6.75538 14.9708 6.53959C15.0637 6.32381 15.0216 6.07358 14.8631 5.90018L14.0217 4.99369Z" fill="#A5A5A5"/>
</svg>
