<svg width="36" height="36" viewBox="0 0 36 36" fill="none" xmlns="http://www.w3.org/2000/svg">
<rect width="36" height="36" rx="18" fill="white"/>
<rect x="4" y="4" width="28" height="28" rx="14" fill="#EDEDED"/>
<path d="M25.438 19.785C25.07 19.2586 24.371 19.0507 23.76 19.2656C23.8029 19.2133 23.822 19.1463 23.814 19.0793C23.8049 19.0123 23.769 18.9512 23.713 18.9118C23.388 18.6772 22.968 18.6328 22.607 18.7619C22.7299 18.1103 22.5299 17.4322 22.029 16.9068L20.161 14.9827C19.99 14.7866 19.9999 14.5215 20.186 14.3341L20.994 13.5259C21.012 13.5082 21.0281 13.4885 21.042 13.4657C21.1521 13.2912 21.157 13.0803 21.056 12.9019C20.9479 12.7097 20.736 12.5904 20.503 12.5904H20.2229C20.225 12.4829 20.1949 12.3746 20.134 12.28C20.02 12.1045 19.82 12 19.5989 12H18.21C17.99 12 17.789 12.1045 17.6749 12.28C17.6139 12.3746 17.584 12.4831 17.586 12.5904H17.237C17.003 12.5904 16.79 12.7107 16.682 12.9029C16.582 13.0833 16.588 13.2952 16.6999 13.4696C16.7139 13.4913 16.73 13.511 16.7479 13.5288L17.581 14.3548C17.766 14.5382 17.7789 14.8013 17.615 14.9965L15.762 16.9452C15.461 17.2685 15.2741 17.6489 15.2019 18.0432C15.4459 17.986 15.6959 17.9574 15.9469 17.9604C16.0129 17.7652 16.1219 17.5789 16.2759 17.4143L18.132 15.4616C18.136 15.4576 18.139 15.4537 18.143 15.4497C18.189 15.3955 18.2291 15.3402 18.264 15.2821H19.52C19.5551 15.3384 19.595 15.3926 19.64 15.4428C19.643 15.4467 19.647 15.4497 19.65 15.4537L21.521 17.3807C21.9831 17.8657 22.071 18.5379 21.747 19.0938C21.6081 19.3303 21.415 19.5364 21.1831 19.701C21.25 19.7612 21.3091 19.8282 21.3611 19.9001C21.45 20.0233 21.5151 20.1613 21.5551 20.3081L21.376 20.393L21.2111 20.3723C21.1111 20.0479 20.8361 19.7868 20.4691 19.7089L18.9251 19.3816C18.3612 19.2624 17.8342 19.0435 17.3602 18.732C16.4292 18.1209 15.1772 18.1682 14.3002 18.8425V18.5497C14.3002 18.4137 14.1882 18.3033 14.0502 18.3033H13.1692C13.1622 18.3033 13.1563 18.3013 13.1482 18.3013L10.85 18.3015C10.657 18.3015 10.5 18.4563 10.5 18.6465C10.5 18.8377 10.657 18.9915 10.85 18.9915H12.798V23.31H10.85C10.753 23.31 10.666 23.3484 10.603 23.4106C10.5391 23.4736 10.5 23.5594 10.5 23.655C10.5 23.8452 10.657 24 10.85 24H13.148C13.342 24 13.498 23.8452 13.498 23.655V23.1721H14.05C14.1879 23.1721 14.3 23.0616 14.3 22.9256V22.3766H14.637C14.889 22.3766 15.1411 22.4042 15.386 22.4604L18.7989 23.242C18.8099 23.244 18.8209 23.246 18.8319 23.248C18.9509 23.2627 19.0699 23.2706 19.1879 23.2706C19.422 23.2706 19.6559 23.241 19.8839 23.181C19.895 23.178 19.9059 23.175 19.9159 23.1711L22.4099 22.2653C22.4369 22.2554 22.4639 22.2416 22.4879 22.2249L25.3499 20.2644C25.5078 20.1558 25.5478 19.9418 25.4379 19.7852L25.438 19.785ZM18.4268 14.7895C18.4309 14.7462 18.4329 14.7018 18.4309 14.6574H19.3419C19.3409 14.7017 19.3439 14.746 19.3489 14.7895H18.4268ZM19.4619 14.1646H18.298C18.2419 14.0591 18.1689 13.9586 18.077 13.8679L17.485 13.2805H17.89L17.9511 13.3909C18.014 13.5072 18.1351 13.5733 18.2591 13.5733C18.3151 13.5733 18.3721 13.5606 18.4241 13.532C18.595 13.4423 18.6591 13.2333 18.568 13.0657L18.364 12.6901H19.444L19.237 13.0627C19.144 13.2293 19.206 13.4393 19.376 13.531C19.5449 13.6226 19.758 13.5605 19.851 13.394L19.9139 13.2807H20.2569L19.6879 13.8504C19.5918 13.9458 19.5178 14.0522 19.4619 14.1646L19.4619 14.1646ZM13.7999 22.6791H13.3979V18.7966H13.7999V22.6791ZM23.1699 19.1985L22.7059 19.7583L21.7439 20.2176L22.5199 19.3917C22.686 19.2143 22.939 19.1462 23.1699 19.1985ZM22.1249 21.6322L19.6899 22.5174C19.4439 22.5795 19.1919 22.5963 18.9399 22.5657L15.5439 21.788C15.2469 21.721 14.9419 21.6865 14.6369 21.6865H14.2998L14.2999 19.6243C14.4459 19.575 14.584 19.5011 14.7049 19.4045C15.3479 18.893 16.2799 18.8525 16.9719 19.3069C17.5189 19.6667 18.1269 19.919 18.7769 20.0571L20.3219 20.3844C20.4739 20.417 20.5739 20.55 20.5489 20.688C20.5439 20.7107 20.5118 20.7324 20.4739 20.7274L17.6289 20.3617C17.437 20.3381 17.261 20.4702 17.236 20.6594C17.211 20.8477 17.346 21.0211 17.538 21.0458L20.3829 21.4125C20.418 21.4164 20.4519 21.4184 20.4869 21.4184C20.7599 21.4184 21.0069 21.2785 21.142 21.0597L21.389 21.0912C21.4569 21.1002 21.526 21.0883 21.5869 21.0597L23.92 19.9458C24.1379 19.8413 24.3859 19.8482 24.5889 19.9458L22.1249 21.6322Z" fill="#A5A5A5"/>
</svg>
