<svg width="17" height="23" viewBox="0 0 17 23" fill="none" xmlns="http://www.w3.org/2000/svg">
<g id="Frame 1000004732">
<g id="Group 1000004467">
<g id="Group 1000004470">
<g id="Group 1000004469">
<path id="Vector 173 (Stroke)" fill-rule="evenodd" clip-rule="evenodd" d="M0.5 4.57031C0.5 4.29417 0.723858 4.07031 1 4.07031L4.74998 4.07031C5.02612 4.07031 5.24998 4.29417 5.24998 4.57031C5.24998 4.84645 5.02612 5.07031 4.74998 5.07031L1 5.07031C0.723858 5.07031 0.5 4.84645 0.5 4.57031Z" fill="#EE2326"/>
<path id="Vector 174 (Stroke)" fill-rule="evenodd" clip-rule="evenodd" d="M12.3438 4.57031C12.3438 4.29417 12.5676 4.07031 12.8438 4.07031H15.9993C16.2755 4.07031 16.4993 4.29417 16.4993 4.57031C16.4993 4.84645 16.2755 5.07031 15.9993 5.07031H12.8438C12.5676 5.07031 12.3438 4.84645 12.3438 4.57031Z" fill="#EE2326"/>
<path id="Ellipse 281 (Stroke)" fill-rule="evenodd" clip-rule="evenodd" d="M8.72911 7.23167C10.4499 7.23167 11.8449 5.83666 11.8449 4.11583C11.8449 2.39501 10.4499 1 8.72911 1C7.00829 1 5.61328 2.39501 5.61328 4.11583C5.61328 5.83666 7.00829 7.23167 8.72911 7.23167ZM8.72911 8.23167C11.0022 8.23167 12.8449 6.38895 12.8449 4.11583C12.8449 1.84272 11.0022 0 8.72911 0C6.456 0 4.61328 1.84272 4.61328 4.11583C4.61328 6.38895 6.456 8.23167 8.72911 8.23167Z" fill="#EE2326"/>
</g>
<g id="Group 1000004468">
<path id="Rectangle 39708 (Stroke)" fill-rule="evenodd" clip-rule="evenodd" d="M10.3125 19.6874V14.0625C10.3125 13.0615 9.50099 12.25 8.49998 12.25C7.49897 12.25 6.6875 13.0615 6.6875 14.0625V19.6874C6.6875 20.6885 7.49898 21.4999 8.49998 21.4999C9.50099 21.4999 10.3125 20.6885 10.3125 19.6874ZM8.49998 11.25C6.94669 11.25 5.6875 12.5092 5.6875 14.0625V19.6874C5.6875 21.2407 6.94669 22.4999 8.49998 22.4999C10.0533 22.4999 11.3125 21.2407 11.3125 19.6874V14.0625C11.3125 12.5092 10.0533 11.25 8.49998 11.25Z" fill="#303030"/>
<path id="Vector 175 (Stroke)" fill-rule="evenodd" clip-rule="evenodd" d="M11.2913 10.9779C10.4084 10.0298 9.2864 9.81646 8.55642 9.88732L8.53232 9.88965H8.50811C6.70248 9.88965 5.60968 10.9248 4.98018 12.3377C4.33986 13.7749 4.21431 15.5501 4.3767 16.811C4.41198 17.0849 4.21855 17.3355 3.94467 17.3708C3.67079 17.406 3.42017 17.2126 3.38489 16.9387C3.20453 15.5383 3.33601 13.5708 4.06674 11.9307C4.80572 10.2721 6.19094 8.89914 8.48431 8.8897C9.46758 8.80128 10.9017 9.09215 12.0231 10.2964C13.1579 11.5149 13.8976 13.5866 13.6338 16.9144C13.612 17.1896 13.3712 17.3951 13.0959 17.3733C12.8206 17.3515 12.6152 17.1106 12.637 16.8354C12.8874 13.6758 12.1703 11.9218 11.2913 10.9779Z" fill="#303030"/>
</g>
</g>
</g>
</g>
</svg>
